<svg id="Layer_5" enable-background="new 0 0 62 62" height="512" viewBox="0 0 62 62" width="512" xmlns="http://www.w3.org/2000/svg" xmlns:xlink="http://www.w3.org/1999/xlink"><linearGradient id="SVGID_1_" gradientUnits="userSpaceOnUse" x1="31" x2="31" y1="62" y2="0"><stop offset="0" stop-color="#9f2fff"/><stop offset="1" stop-color="#0bb1d3"/></linearGradient><path d="m27 31h-2c0-.551-.448-1-1-1s-1 .449-1 1h-2c0-1.654 1.346-3 3-3s3 1.346 3 3zm-20 0h2c0-.551.448-1 1-1s1 .449 1 1h2c0-1.654-1.346-3-3-3s-3 1.346-3 3zm10 10c2.206 0 4-1.794 4-4h-2c0 1.103-.897 2-2 2s-2-.897-2-2h-2c0 2.206 1.794 4 4 4zm45-38v50c0 1.654-1.346 3-3 3h-3v2c0 2.206-1.794 4-4 4h-16c-2.029 0-3.692-1.524-3.948-3.485l-6.171 2.743c-1.108.492-2.283.742-3.494.742h-13.387v-12.805-.195-.184c-5.193-.943-9-5.432-9-10.816v-13c0-9.036 7.092-16.427 16-16.949v-5.051c0-1.654 1.346-3 3-3h40c1.654 0 3 1.346 3 3zm-44 0v5h42v-5c0-.551-.448-1-1-1h-40c-.552 0-1 .449-1 1zm-8.682 43.843c.351-1.012.975-1.897 1.789-2.561-1.44-.544-2.765-1.383-3.886-2.505-2.077-2.077-3.222-4.839-3.221-7.777v-13h3.343c3.381 0 6.56-1.316 8.95-3.707l.707-.707.707.707c2.391 2.391 5.569 3.707 8.95 3.707h3.343v13c-.001 5.26-3.714 9.664-8.655 10.742.313.208.62.427.911.669.559.466 1.057.988 1.5 1.547 4.66-.382 8.244-4.22 8.244-8.958v-13c0-8.271-6.729-15-15-15s-15 6.729-15 15v13c0 4.391 3.092 8.055 7.318 8.843zm14.681 6.546c-.005-2.495-1.106-4.842-3.023-6.441-.377-.314-.78-.593-1.202-.835.107.208.211.418.292.642l2.556 7.027zm4.001-23.389c0-2.206-1.794-4-4-4s-4 1.794-4 4 1.794 4 4 4 4-1.794 4-4zm0-7h-1.343c-3.59 0-6.983-1.282-9.657-3.63-2.674 2.348-6.067 3.63-9.657 3.63h-1.343v2.54c1.063-.954 2.462-1.54 4-1.54 2.967 0 5.431 2.167 5.91 5h2.181c.478-2.833 2.942-5 5.91-5 1.538 0 2.937.586 4 1.54v-2.54zm-18 3c-2.206 0-4 1.794-4 4s1.794 4 4 4 4-1.794 4-4-1.794-4-4-4zm-3.977 8.481c.117 2.223 1.027 4.297 2.612 5.883 1.7 1.7 3.961 2.636 6.365 2.636h.595 3.405c4.799 0 8.722-3.78 8.976-8.518-1.06.941-2.45 1.518-3.976 1.518-2.967 0-5.431-2.167-5.91-5h-2.18c-.478 2.833-2.942 5-5.91 5-1.526 0-2.917-.577-3.977-1.519zm4.977 14.519v.195c0 .917.338 1.796.951 2.478l2.994 3.327h.055c2 0 3.859-1.014 4.969-2.66l-1.782-4.902c-.531-1.458-1.93-2.438-3.482-2.438-2.043 0-3.705 1.662-3.705 3.705zm5.889 11c-.316-.262-.62-.54-.898-.848l-4.991-5.547v6.395zm15.899-4h1.212v-2.171c0-1.009-.82-1.829-1.828-1.829-.481 0-.952.195-1.293.535l-1.355 1.355-6.742 1.927-.833 2.499-1.896-.633.89-2.669-.176-.483c-1.126 1.17-2.586 1.966-4.18 2.291l.892.991c1.25 1.39 3.039 2.187 4.908 2.187.93 0 1.832-.191 2.682-.569zm21.212 2h-16-2-2c0 1.103.897 2 2 2h16c1.103 0 2-.897 2-2zm0-11c0-.551-.448-1-1-1h-12c-.552 0-1 .449-1 1v9h14zm6 6v-43h-35.017c5.359 2.864 9.017 8.511 9.017 15v13c0 5.445-3.874 9.915-9.071 10.821.609 1.239.961 2.598 1.039 4.006l2.508-.716.988-.988c.723-.725 1.684-1.123 2.708-1.123 2.11 0 3.828 1.717 3.828 3.829v2.171h2v-9c0-1.654 1.346-3 3-3h12c1.654 0 3 1.346 3 3v7h3c.552 0 1-.449 1-1zm-38-49h-2v2h2zm8 0h-2v2h2zm-4 0h-2v2h2zm32 19c0 6.065-4.935 11-11 11s-11-4.935-11-11 4.935-11 11-11 11 4.935 11 11zm-10-8.941v4.042c1.301.265 2.421 1.038 3.141 2.101l3.735-1.547c-1.381-2.495-3.913-4.267-6.876-4.596zm-1 11.941c1.654 0 3-1.346 3-3s-1.346-3-3-3-3 1.346-3 3 1.346 3 3 3zm2.848 1.262 1.498 3.615c.447-.248.869-.534 1.266-.851zm4.177 1.349c.318-.397.604-.819.852-1.266l-3.616-1.497zm1.615-3.115c.14-.484.244-.983.301-1.496h-3.914zm.301-3.496c-.057-.513-.161-1.012-.301-1.496l-3.613 1.496zm-17.882 0h4.042c.399-1.956 1.943-3.5 3.899-3.899v-4.042c-4.165.463-7.478 3.777-7.941 7.941zm4.596 8.876 1.548-3.735c-1.064-.721-1.836-1.84-2.101-3.142h-4.042c.328 2.963 2.099 5.495 4.595 6.877zm4.345 1.124c.867 0 1.703-.13 2.497-.36l-1.548-3.736c-.308.06-.624.096-.949.096s-.641-.036-.949-.096l-1.548 3.736c.794.23 1.63.36 2.497.36zm-11 6h22v-2h-22zm0 4h22v-2h-22zm14 8c0 1.654-1.346 3-3 3s-3-1.346-3-3 1.346-3 3-3 3 1.346 3 3zm-2 0c0-.551-.448-1-1-1s-1 .449-1 1 .448 1 1 1 1-.449 1-1z" fill="url(#SVGID_1_)"/></svg>