<?xml version="1.0" standalone="no"?>
<!DOCTYPE svg PUBLIC "-//W3C//DTD SVG 20010904//EN"
 "http://www.w3.org/TR/2001/REC-SVG-20010904/DTD/svg10.dtd">
<svg version="1.0" xmlns="http://www.w3.org/2000/svg"
 width="106.000000pt" height="105.000000pt" viewBox="0 0 106.000000 105.000000"
 preserveAspectRatio="xMidYMid meet">

<g transform="translate(0.000000,105.000000) scale(0.100000,-0.100000)"
fill="#000000" stroke="none">
<path d="M435 976 c-217 -54 -365 -276 -328 -491 30 -176 156 -317 323 -361
228 -59 465 83 525 316 82 316 -207 613 -520 536z m258 -74 c80 -37 152 -109
191 -192 28 -58 31 -75 31 -160 0 -85 -3 -102 -31 -160 -41 -86 -108 -153
-192 -193 -60 -29 -77 -32 -157 -32 -80 0 -97 3 -155 31 -248 117 -306 437
-114 628 49 49 119 90 181 106 68 17 177 5 246 -28z"/>
<path d="M430 570 l0 -230 130 0 130 0 0 35 0 35 -95 0 -95 0 0 195 0 195 -35
0 -35 0 0 -230z"/>
</g>
</svg>
