<?xml version="1.0" standalone="no"?>
<!DOCTYPE svg PUBLIC "-//W3C//DTD SVG 20010904//EN"
 "http://www.w3.org/TR/2001/REC-SVG-20010904/DTD/svg10.dtd">
<svg version="1.0" xmlns="http://www.w3.org/2000/svg"
 width="234.000000pt" height="262.000000pt" viewBox="0 0 234.000000 262.000000"
 preserveAspectRatio="xMidYMid meet">

<g transform="translate(0.000000,262.000000) scale(0.100000,-0.100000)"
fill="#000000" stroke="none">
<path d="M168 1973 c12 -2 32 -2 45 0 12 2 2 4 -23 4 -25 0 -35 -2 -22 -4z"/>
<path d="M1158 1973 c12 -2 30 -2 40 0 9 3 -1 5 -23 4 -22 0 -30 -2 -17 -4z"/>
<path d="M1468 1973 c12 -2 32 -2 45 0 12 2 2 4 -23 4 -25 0 -35 -2 -22 -4z"/>
<path d="M1753 1973 c9 -2 25 -2 35 0 9 3 1 5 -18 5 -19 0 -27 -2 -17 -5z"/>
<path d="M2028 1973 c12 -2 32 -2 45 0 12 2 2 4 -23 4 -25 0 -35 -2 -22 -4z"/>
<path d="M2258 1973 c12 -2 30 -2 40 0 9 3 -1 5 -23 4 -22 0 -30 -2 -17 -4z"/>
<path d="M122 1907 c-46 -122 -47 -129 -47 -462 0 -312 1 -321 23 -378 47
-114 136 -198 249 -234 l53 -17 0 -239 0 -238 278 3 277 3 135 61 135 61 20
-40 c11 -23 33 -50 48 -61 27 -20 43 -21 355 -24 296 -2 330 -1 361 15 54 28
74 64 79 138 l4 65 67 0 c80 0 110 14 133 60 17 32 18 86 18 688 l0 652 -35 0
-35 0 0 -653 c0 -495 -3 -656 -12 -665 -7 -7 -39 -12 -75 -12 l-63 0 0 138 c0
154 -7 178 -60 205 -31 16 -62 17 -277 15 l-243 -3 -27 -28 -28 -27 -5 -188
-5 -187 -37 -3 -38 -3 0 53 c0 65 -24 115 -69 145 -57 39 -115 30 -176 -27
-30 -28 -100 -54 -117 -44 -4 3 -8 16 -8 28 0 13 -7 43 -15 66 -8 23 -15 44
-15 45 0 1 21 8 46 15 111 31 215 131 255 246 19 53 20 78 17 398 l-3 341 -29
73 c-28 72 -29 72 -66 72 l-37 0 23 -46 c48 -95 55 -165 52 -490 -3 -281 -4
-302 -24 -345 -43 -93 -130 -165 -227 -190 l-48 -12 -46 47 c-27 26 -41 46
-33 46 34 0 139 60 184 106 28 28 63 77 80 114 l31 65 3 281 3 281 -118 5
c-107 4 -125 7 -186 36 -37 17 -87 47 -111 67 -24 19 -46 35 -51 35 -4 0 -34
-20 -66 -44 -90 -68 -153 -89 -286 -94 l-113 -4 0 -262 c0 -210 3 -273 16
-317 29 -100 102 -189 191 -235 21 -10 40 -20 42 -21 2 -1 -7 -15 -20 -31 -13
-16 -29 -38 -35 -48 -9 -16 -15 -17 -50 -6 -94 28 -166 98 -204 201 -18 47
-20 78 -20 346 0 310 5 361 46 454 13 29 24 55 24 57 0 2 -15 4 -34 4 -32 0
-36 -3 -54 -53z m601 -51 c79 -59 223 -106 327 -106 l40 0 0 -45 c0 -25 -2
-45 -4 -45 -2 0 -28 11 -58 25 -58 27 -93 30 -152 14 -52 -14 -123 -82 -138
-130 -11 -37 -13 -39 -53 -39 -41 0 -43 2 -59 43 -21 55 -69 102 -125 122 -61
21 -97 19 -159 -10 -30 -14 -56 -25 -58 -25 -2 0 -4 20 -4 44 l0 43 73 6 c99
9 191 39 263 86 32 22 63 40 67 40 5 1 23 -10 40 -23z m-223 -231 c119 -62 95
-246 -35 -271 -83 -15 -154 29 -176 109 -14 55 11 121 60 154 40 27 107 31
151 8z m512 -2 c80 -48 95 -155 30 -225 -34 -36 -45 -42 -93 -45 -45 -4 -60
-1 -89 19 -62 42 -87 126 -56 186 16 30 53 66 76 75 33 12 103 6 132 -10z
m-269 -208 c48 -116 200 -168 302 -101 32 21 35 21 35 -11 0 -50 -54 -145
-109 -195 -68 -61 -121 -79 -256 -85 -184 -9 -296 35 -370 142 -34 50 -70 157
-54 163 4 2 19 -4 33 -13 102 -67 258 -15 302 100 16 43 18 45 58 45 39 0 42
-2 59 -45z m-89 -469 c44 -18 67 -53 106 -162 31 -88 31 -93 15 -117 -19 -29
-107 -77 -141 -77 -31 0 -151 133 -165 182 -10 40 0 99 24 129 19 25 79 59
105 59 12 0 38 -6 56 -14z m1354 -38 c8 -8 12 -64 12 -185 l0 -173 -252 2
-253 3 -3 163 c-1 101 2 170 8 182 10 19 22 20 243 20 168 0 236 -3 245 -12z
m-1148 -55 c57 -64 98 -186 69 -204 -36 -23 -46 -10 -93 120 -25 71 -46 132
-46 135 0 13 38 -14 70 -51z m425 -177 c11 -16 15 -41 13 -73 -3 -46 -4 -48
-38 -54 -19 -4 -97 -34 -172 -68 -79 -35 -159 -64 -187 -68 -70 -8 -137 17
-190 71 l-43 44 35 11 c20 7 54 25 76 41 22 16 42 26 45 21 3 -5 -2 -30 -10
-55 -9 -26 -14 -49 -11 -52 2 -3 17 -6 32 -7 24 -2 30 3 42 39 l14 41 122 34
c97 27 129 40 157 66 44 41 92 45 115 9z m-706 -153 l102 -113 -104 0 c-93 0
-105 2 -109 18 -10 36 -9 214 0 211 5 -2 55 -55 111 -116z m1441 -52 c0 -11
-12 -29 -26 -40 -26 -20 -38 -21 -337 -21 -305 0 -311 0 -334 22 -13 12 -23
30 -23 40 0 17 18 18 360 18 349 0 360 -1 360 -19z"/>
<path d="M359 1531 c-38 -39 -39 -71 -1 -71 16 0 32 8 40 20 7 11 21 20 32 20
11 0 25 -9 32 -20 8 -13 24 -20 44 -20 28 0 31 3 26 25 -7 39 -57 75 -104 75
-30 0 -46 -7 -69 -29z"/>
<path d="M866 1534 c-14 -15 -26 -30 -26 -35 0 -4 -3 -14 -6 -23 -10 -25 58
-22 74 4 7 11 21 20 32 20 10 0 24 -9 30 -20 7 -13 21 -20 41 -20 29 0 31 2
25 28 -17 71 -117 98 -170 46z"/>
<path d="M550 1211 c15 -52 31 -73 73 -92 53 -24 71 -24 122 1 42 21 75 63 75
99 0 17 -6 21 -30 21 -16 0 -30 -5 -30 -10 0 -22 -50 -60 -78 -60 -29 0 -72
35 -72 58 0 7 -15 12 -34 12 -33 0 -34 -1 -26 -29z"/>
<path d="M1714 861 c-36 -22 -58 -75 -48 -115 10 -41 59 -76 106 -76 77 0 121
79 86 155 -13 30 -55 55 -90 55 -13 0 -37 -9 -54 -19z m86 -72 c15 -27 -5 -51
-39 -47 -29 3 -39 31 -21 53 18 21 48 18 60 -6z"/>
<path d="M1410 1908 c-85 -198 2 -424 198 -516 50 -24 69 -27 162 -27 88 0
113 4 154 23 198 91 290 325 203 515 -24 54 -28 57 -61 57 -41 0 -42 -2 -21
-34 15 -22 14 -23 -53 -50 l-69 -28 -47 36 c-26 20 -54 36 -62 36 -8 0 -14 9
-14 20 0 16 -7 20 -30 20 -23 0 -30 -5 -30 -19 0 -12 -9 -21 -25 -25 -37 -9
-92 -62 -107 -102 l-12 -34 -79 0 -79 0 7 33 c3 17 19 58 35 90 l29 57 -38 0
c-37 0 -40 -2 -61 -52z m431 -76 c24 -21 32 -38 36 -75 5 -43 3 -49 -30 -82
-40 -40 -86 -46 -137 -20 -38 20 -50 43 -50 97 1 96 109 144 181 80z m249 -22
l0 -30 -72 0 c-80 0 -81 7 -3 39 68 27 75 26 75 -9z m-487 -118 c3 -16 20 -43
37 -62 l30 -33 -27 -68 c-16 -38 -31 -69 -34 -69 -4 0 -30 20 -57 45 -51 46
-94 120 -107 183 l-7 32 80 0 c79 0 80 0 85 -28z m487 -2 c0 -36 -3 -36 -74
-9 -79 29 -78 39 3 39 l71 0 0 -30z m-92 -70 c54 -23 63 -38 36 -61 -13 -11
-23 -5 -67 41 -29 29 -45 50 -37 47 8 -3 39 -15 68 -27z m-68 -76 l45 -45 -25
-21 -25 -20 -27 58 c-42 92 -35 97 32 28z m-95 -41 c14 -36 23 -68 20 -72 -9
-9 -162 -8 -171 1 -4 5 5 38 19 76 l27 68 39 -4 c38 -4 40 -6 66 -69z"/>
<path d="M1370 1245 l0 -35 395 0 395 0 0 35 0 35 -395 0 -395 0 0 -35z"/>
<path d="M1370 1100 l0 -30 395 0 395 0 0 30 0 30 -395 0 -395 0 0 -30z"/>
<path d="M602 255 c0 -16 2 -22 5 -12 2 9 2 23 0 30 -3 6 -5 -1 -5 -18z"/>
<path d="M1391 244 c-30 -21 -71 -109 -71 -152 0 -22 8 -41 26 -59 48 -48 136
-14 170 66 8 18 11 37 8 42 -7 13 -75 11 -113 -2 -47 -16 -33 -35 23 -31 45 3
47 2 36 -17 -14 -28 -45 -43 -78 -39 -23 2 -28 9 -30 37 -4 41 12 82 43 111
23 22 35 22 78 5 29 -12 21 30 -8 43 -35 16 -56 15 -84 -4z"/>
<path d="M2055 240 c-8 -14 3 -30 21 -30 8 0 14 9 14 20 0 21 -24 28 -35 10z"/>
<path d="M667 199 c4 -13 8 -18 11 -10 2 7 -1 18 -6 23 -8 8 -9 4 -5 -13z"/>
<path d="M412 170 c0 -19 2 -27 5 -17 2 9 2 25 0 35 -3 9 -5 1 -5 -18z"/>
<path d="M932 170 c0 -19 2 -27 5 -17 2 9 2 25 0 35 -3 9 -5 1 -5 -18z"/>
<path d="M1588 175 c-31 -17 -52 -71 -42 -110 10 -38 41 -55 99 -51 46 3 50 5
47 27 -2 13 -4 48 -5 77 -3 71 -36 91 -99 57z m60 -72 c-3 -46 -4 -48 -33 -48
-26 0 -30 4 -33 28 -4 33 22 67 50 67 17 0 19 -6 16 -47z"/>
<path d="M1730 99 c0 -68 3 -90 13 -87 7 3 13 26 15 54 3 49 23 84 49 84 7 0
13 -9 13 -21 0 -33 25 -16 28 19 4 39 -17 51 -59 35 -17 -7 -31 -7 -35 -2 -16
26 -24 0 -24 -82z"/>
<path d="M1917 179 c-24 -14 -47 -62 -47 -98 0 -20 8 -36 26 -50 33 -26 65
-27 95 -2 19 16 22 22 12 32 -10 10 -16 10 -25 1 -17 -17 -53 -15 -68 3 -11
13 -10 22 4 52 16 33 19 35 51 30 40 -6 49 15 16 33 -24 12 -41 12 -64 -1z"/>
<path d="M2057 183 c-4 -3 -7 -44 -7 -90 0 -64 3 -83 14 -83 10 0 15 20 18 78
5 94 -1 119 -25 95z"/>
<path d="M2168 175 c-31 -17 -52 -71 -42 -110 10 -38 41 -55 99 -51 46 3 50 5
47 27 -2 13 -4 48 -5 77 -3 71 -36 91 -99 57z m60 -72 c-3 -46 -4 -48 -33 -48
-26 0 -30 4 -33 28 -4 33 22 67 50 67 17 0 19 -6 16 -47z"/>
<path d="M1203 130 c0 -25 2 -35 4 -22 2 12 2 32 0 45 -2 12 -4 2 -4 -23z"/>
<path d="M132 130 c0 -19 2 -27 5 -17 2 9 2 25 0 35 -3 9 -5 1 -5 -18z"/>
<path d="M471 114 c0 -11 3 -14 6 -6 3 7 2 16 -1 19 -3 4 -6 -2 -5 -13z"/>
<path d="M672 80 c0 -19 2 -27 5 -17 2 9 2 25 0 35 -3 9 -5 1 -5 -18z"/>
<path d="M761 94 c0 -11 3 -14 6 -6 3 7 2 16 -1 19 -3 4 -6 -2 -5 -13z"/>
<path d="M851 94 c0 -11 3 -14 6 -6 3 7 2 16 -1 19 -3 4 -6 -2 -5 -13z"/>
</g>
</svg>
